<?xml version="1.0" encoding="iso-8859-1"?>
<!-- Uploaded to: SVG Repo, www.svgrepo.com, Generator: SVG Repo Mixer Tools -->
<!DOCTYPE svg PUBLIC "-//W3C//DTD SVG 1.1//EN" "http://www.w3.org/Graphics/SVG/1.1/DTD/svg11.dtd">
<svg fill="#000000" height="800px" width="800px" version="1.1" id="Capa_1" xmlns="http://www.w3.org/2000/svg" xmlns:xlink="http://www.w3.org/1999/xlink" 
	 viewBox="0 0 297.01 297.01" xml:space="preserve">
<g>
	<path d="M136.297,263.567l129.979-130.725c1.393-1.396,2.091-3.22,2.091-5.046c0-1.823-0.698-3.651-2.091-5.044
		c-37.913-37.904-107.068,30.369-109.992,33.292l-21.039,21.034c0,0-3.343,3.052-3.343,7.801v76.25
		C131.902,261.13,131.922,267.942,136.297,263.567z"/>
	<path d="M116.015,261.006V36.004C116.015,16.201,99.815,0,80.01,0H64.654C44.847,0,28.643,16.201,28.643,36.004v225.002
		c0,19.803,16.204,36.004,36.012,36.004H80.01C99.815,297.01,116.015,280.809,116.015,261.006z M63.328,34.942
		c0-4.97,4.027-9.001,9.005-9.001c4.969,0,9,4.031,9,9.001s-4.031,9-9,9C67.355,43.942,63.328,39.912,63.328,34.942z
		 M64.388,165.976v-9.53h-9.531c-4.388,0-7.945-3.556-7.945-7.94c0-4.384,3.558-7.94,7.945-7.94h9.531v-9.53
		c0-4.39,3.552-7.941,7.945-7.941c4.383,0,7.941,3.552,7.941,7.941v9.53h9.529c4.386,0,7.948,3.557,7.948,7.94
		c0,4.385-3.563,7.94-7.948,7.94h-9.529v9.53c0,4.389-3.559,7.941-7.941,7.941C67.939,173.917,64.388,170.364,64.388,165.976z"/>
</g>
</svg>